# xmcd
#
# Track frame offsets:
#	183
#	10513
#	21000
#	28673
#	42150
#	53350
#	61868
#	76365
#	88130
#	101198
#	109423
#	124855
#	132453
#	146065
#	160413
#	169973
#	184198
#	197320
#	207068
#	219813
#	233045
#	244305
#	257955
#	269608
#	279500
#	296913
#	306383
#
# Disc length: 4221 seconds
# Revision: 0
# Processed by: cddbd v1.5.2PL0 Copyright (c) Steve Scherf et al.
# Submitted via: dBpowerAMP V12.0
#
DISCID=8e107b1b
DTITLE=The Fireside Singers - 150 All Time Sing Along Favorites Disc 1
DYEAR=1990
DGENRE=Sing A Long
TTITLE0=By The Light Of The Silvery Moon
TTITLE1=My Darling Clementine
TTITLE2=Down By The Riverside
TTITLE3=Moonlight Bay
TTITLE4=You Are My Sunshine
TTITLE5=Row Row Row Your Boat
TTITLE6=Side By Side Shine On Harvest Moon
TTITLE7=On Top Of Old Smokey
TTITLE8=Good Night Irene
TTITLE9=A Hot Time In The Old Town Tonight and Hail Hail The Gangs All Here
TTITLE10=Man On The Flying Trapeze
TTITLE11=I'm Looking Over A Four Leaf Clover
TTITLE12=And The Band Played On In The Good Ole Summer Time
TTITLE13=Bill Bailey Won't You Please Come Home and Meet Me In St Louis Louis
TTITLE14=Buffalo Gals Won't You Come Out Tonight
TTITLE15=There Is A Tavern In The Town
TTITLE16=Harrigan Has Anybody Here Seen Kelly
TTITLE17=Can Can Melody Featuring Ta Ra Ra Boom Der E
TTITLE18=This Land Is Your Land
TTITLE19=The Yankee Doodle Boy and Mary's A Grand Ole Name and Give My Regards To Broadway
TTITLE20=If I Had A Hammer
TTITLE21=Cotton Fields
TTITLE22=Oklahoma California Here I Come
TTITLE23=Dixie Yankee Doodle
TTITLE24=My Ole Kentucky Home
TTITLE25=The Yellow Rose Of Texas
TTITLE26=Your A Grand Ole Flag Over There
EXTD=
EXTT0=
EXTT1=
EXTT2=
EXTT3=
EXTT4=
EXTT5=
EXTT6=
EXTT7=
EXTT8=
EXTT9=
EXTT10=
EXTT11=
EXTT12=
EXTT13=
EXTT14=
EXTT15=
EXTT16=
EXTT17=
EXTT18=
EXTT19=
EXTT20=
EXTT21=
EXTT22=
EXTT23=
EXTT24=
EXTT25=
EXTT26=
PLAYORDER=
